<svg xmlns="http://www.w3.org/2000/svg" viewBox="0 0 1080 1080" width="1080" height="1080" font-family="Montserrat, 'Helvetica Neue', Arial, sans-serif"><defs><linearGradient id="bg" x1="0" y1="0" x2="0.35" y2="1"><stop offset="0" stop-color="#20252b"/><stop offset="0.45" stop-color="#1A1C1E"/><stop offset="1" stop-color="#141619"/></linearGradient><linearGradient id="alu" x1="0" y1="0" x2="1" y2="1"><stop offset="0" stop-color="#4b535b"/><stop offset="0.5" stop-color="#2b3036"/><stop offset="1" stop-color="#191c20"/></linearGradient><linearGradient id="glass" x1="0" y1="0" x2="0.6" y2="1"><stop offset="0" stop-color="#1B6CC8" stop-opacity="0.35"/><stop offset="0.5" stop-color="#22303c" stop-opacity="0.5"/><stop offset="1" stop-color="#12171c" stop-opacity="0.6"/></linearGradient><linearGradient id="screen" x1="0" y1="0" x2="0.4" y2="1"><stop offset="0" stop-color="#1B6CC8"/><stop offset="0.6" stop-color="#123a63"/><stop offset="1" stop-color="#0e1b2b"/></linearGradient><radialGradient id="wash" cx="78%" cy="16%" r="70%"><stop offset="0" stop-color="#1B6CC8" stop-opacity="0.20"/><stop offset="1" stop-color="#1B6CC8" stop-opacity="0"/></radialGradient><filter id="soft"><feGaussianBlur stdDeviation="14"/></filter></defs><rect width="1080" height="1080" fill="url(#bg)"/><rect width="1080" height="1080" fill="url(#wash)"/><g opacity="0.28"><ellipse cx="760" cy="447.0" rx="100" ry="16" fill="#000" opacity="0.35" filter="url(#soft)"/><rect x="660.0" y="175.0" width="200" height="250" rx="6" fill="url(#alu)" stroke="rgba(255,255,255,0.1)" stroke-width="1"/><rect x="674.0" y="189.0" width="172" height="222" fill="url(#glass)"/><rect x="753.0" y="189.0" width="14" height="222" fill="url(#alu)"/><polygon points="682.0,197.0 744.0,197.0 692.0,403.0 682.0,403.0" fill="rgba(255,255,255,0.06)"/></g><g opacity="0.9"><ellipse cx="940" cy="507.0" rx="85" ry="16" fill="#000" opacity="0.35" filter="url(#soft)"/><rect x="855.0" y="275.0" width="170" height="210" rx="6" fill="url(#alu)" stroke="rgba(255,255,255,0.1)" stroke-width="1"/><rect x="869.0" y="289.0" width="142" height="182" fill="url(#screen)"/><rect x="933.0" y="289.0" width="14" height="182" fill="url(#alu)"/><polygon points="877.0,297.0 939.0,297.0 887.0,463.0 877.0,463.0" fill="rgba(255,255,255,0.06)"/></g><g opacity="0.5"><ellipse cx="830" cy="677.0" rx="75" ry="16" fill="#000" opacity="0.35" filter="url(#soft)"/><rect x="755.0" y="465.0" width="150" height="190" rx="6" fill="url(#alu)" stroke="rgba(255,255,255,0.1)" stroke-width="1"/><rect x="769.0" y="479.0" width="122" height="162" fill="url(#glass)"/><rect x="823.0" y="479.0" width="14" height="162" fill="url(#alu)"/><polygon points="777.0,487.0 839.0,487.0 787.0,633.0 777.0,633.0" fill="rgba(255,255,255,0.06)"/></g><rect x="80" y="308" width="34" height="3" fill="#1B6CC8"/><text x="128" y="316" text-anchor="start" fill="#B0A99A" font-family="Inter, 'Helvetica Neue', Arial, sans-serif" font-size="21" font-weight="600" letter-spacing="3" opacity="1.0">VISTA 3  ·  LA OBRA</text><text x="80" y="470" text-anchor="start" fill="#FFFFFF" font-family="Montserrat, 'Helvetica Neue', Arial, sans-serif" font-size="74" font-weight="700" letter-spacing="-0.5" opacity="1.0">Miras el</text><text x="80" y="554" text-anchor="start" fill="#FFFFFF" font-family="Montserrat, 'Helvetica Neue', Arial, sans-serif" font-size="74" font-weight="700" letter-spacing="-0.5" opacity="1.0">resultado,</text><text x="80" y="638" text-anchor="start" fill="#FFFFFF" font-family="Montserrat, 'Helvetica Neue', Arial, sans-serif" font-size="74" font-weight="700" letter-spacing="-0.5" opacity="1.0">no un</text><text x="80" y="722" text-anchor="start" fill="#1B6CC8" font-family="Montserrat, 'Helvetica Neue', Arial, sans-serif" font-size="74" font-weight="700" letter-spacing="-0.5" opacity="1.0">catalogo.</text><text x="80" y="842" text-anchor="start" fill="rgba(255,255,255,0.8)" font-family="Inter, 'Helvetica Neue', Arial, sans-serif" font-size="31" font-weight="400" letter-spacing="0" opacity="1.0">Ventanas, DVH, cerramientos, portones.</text><text x="80" y="888" text-anchor="start" fill="rgba(255,255,255,0.8)" font-family="Inter, 'Helvetica Neue', Arial, sans-serif" font-size="31" font-weight="400" letter-spacing="0" opacity="1.0">Terminados, en casas reales.</text><text x="80" y="1020" text-anchor="start" fill="rgba(255,255,255,0.42)" font-family="Inter, 'Helvetica Neue', Arial, sans-serif" font-size="17" font-weight="500" letter-spacing="1.5" opacity="1.0">alumfer.com.ar  ·  Adrogue, Zona Sur</text><text x="1000" y="1020" text-anchor="end" fill="rgba(255,255,255,0.38)" font-family="Inter, 'Helvetica Neue', Arial, sans-serif" font-size="17" font-weight="500" letter-spacing="5" opacity="1.0">05 / 08</text></svg>